<?xml version="1.0" encoding="UTF-8"?>
<svg width="600px" height="400px" viewBox="0 0 600 400" version="1.1" xmlns="http://www.w3.org/2000/svg" xmlns:xlink="http://www.w3.org/1999/xlink">
    <!-- Generator: Sketch 49.2 (51160) - http://www.bohemiancoding.com/sketch -->
    <title>Artboard</title>
    <desc>Created with Sketch.</desc>
    <defs></defs>
    <g id="Artboard" stroke="none" stroke-width="1" fill="none" fill-rule="evenodd">
        <g id="cardboard" transform="translate(302.000000, 202.000000)">
            <path d="M45.9637353,80.5180723 L62.7631427,90.8606828 L62.7631427,143.361446 C67.8567302,134.368365 67.8567302,128.380948 62.7631427,125.399196 C57.6695553,122.417444 47.1929521,122.617102 31.3333333,125.998171 L45.9637353,80.5180723 Z" id="Rectangle-2" stroke="#000000" stroke-width="2" fill="#FFFFFF" fill-rule="nonzero" stroke-linecap="round" stroke-linejoin="round"></path>
            <path d="M52.8174905,31.0726234 L141,80.7903745 L93.1607143,109.975904 L0,55.4116536 L40.2265507,31.2468706 C44.0911551,28.925336 48.8911083,28.858909 52.8174905,31.0726234 Z" id="Rectangle-2" stroke="#000000" stroke-width="2" fill="#FFFFFF" fill-rule="nonzero" stroke-linecap="round" stroke-linejoin="round"></path>
            <path d="M6.3243089,112.64725 L31.7567568,127.419561 C37.4891748,118.446494 42.5947416,115.2507 47.0734572,117.83218 C51.5521728,120.41366 56.9124415,129.594663 63.1542633,145.37519 L94,163 L94,109.629341 L0,54.9879518 L7.80270598e-15,101.658069 C2.26268849e-14,106.186783 2.4093257,110.373251 6.3243089,112.64725 Z" id="Rectangle-2" stroke="#000000" stroke-width="2" fill="#FFFFFF" fill-rule="nonzero" stroke-linecap="round" stroke-linejoin="round"></path>
            <path d="M47.3789906,61.4530395 L134.079839,111.939759 L139.041667,111.939759 L139.041667,54.8303369 L46.1715529,0 L41.125,3.11795828 L41.125,50.4346201 C41.125,54.9753841 43.507537,59.1729907 47.3789906,61.4530395 Z" id="Rectangle-2" fill="#000000" fill-rule="nonzero"></path>
            <path d="M51.3659756,57.6592981 L139.041667,108.012048 L139.041667,54.6413891 L45.0416667,0 L45.0416667,46.6701167 C45.0416667,51.1988315 47.4509924,55.3852996 51.3659756,57.6592981 Z" id="Rectangle-2" fill="#000000" fill-rule="nonzero"></path>
            <polygon id="Rectangle-2" stroke="#000000" stroke-width="2" fill="#FFFFFF" fill-rule="nonzero" stroke-linecap="round" stroke-linejoin="round" points="129.25 88.3592378 117.270732 95.5647931 93.3121951 109.975904 0 56.0908815 23.3231763 42.2632256 34.9847644 35.3493976"></polygon>
            <path d="M141,128.130519 L141,80.5180723 L94,109.703985 L94,163 L134.758553,139.153666 C138.617576,136.895893 141,132.688246 141,128.130519 Z" id="Rectangle-2" stroke="#000000" stroke-width="2" fill="#FFFFFF" fill-rule="nonzero" stroke-linecap="round" stroke-linejoin="round"></path>
            <path d="M25.2677525,81.7333272 L25.9358101,82.1201175 C34.1286917,86.8636114 39.1666667,95.5698504 39.1666667,104.984662 C39.1666667,109.910463 35.1438789,113.903614 30.1815188,113.903614 C28.6464375,113.903614 27.136954,113.51322 25.7970417,112.769665 L25.4095298,112.554624 C16.975219,107.874194 11.75,99.0323635 11.75,89.4407144 C11.75,84.5128752 15.7744517,80.5180723 20.7388646,80.5180723 C22.330251,80.5180723 23.8931113,80.937441 25.2677525,81.7333272 Z" id="path-2" stroke="#000000" stroke-width="2" fill="#FFFFFF" stroke-linecap="round" stroke-linejoin="round"></path>
            <path d="M68.3510859,105.299592 L69.0191434,105.686383 C77.2120251,110.429876 82.25,119.136115 82.25,128.550927 C82.25,133.476728 78.2272123,137.46988 73.2648521,137.46988 C71.7297708,137.46988 70.2202873,137.079485 68.880375,136.33593 L68.4928631,136.120889 C60.0585523,131.440459 54.8333333,122.598629 54.8333333,113.006979 C54.8333333,108.07914 58.8577851,104.084337 63.8221979,104.084337 C65.4135843,104.084337 66.9764447,104.503706 68.3510859,105.299592 Z" id="path-3" stroke="#000000" stroke-width="2" fill="#FFFFFF" stroke-linecap="round" stroke-linejoin="round"></path>
            <path d="M100.564961,85.0400963 L101.953589,84.2079955 C105.794257,81.9065718 110.542358,81.9065718 114.383027,84.2079955 L123.375,89.5962096 L123.375,101.058893 C123.375,105.570768 121.043365,109.74303 117.251692,112.016028 L115.350389,113.155804 C112.804549,114.681963 109.537133,113.797745 108.052415,111.180848 C107.57653,110.342075 107.325779,109.388485 107.325779,108.417493 L107.325779,98.8929136 L100.409246,94.4164288 C97.916407,92.8030255 97.1679692,89.4178563 98.7375641,86.8554419 C99.1955126,86.1078253 99.8224379,85.485034 100.564961,85.0400963 Z" id="path-4" fill="#000000"></path>
        </g>
        <rect id="Rectangle-path" fill="#000000" fill-rule="nonzero" x="126" y="36" width="78" height="146"></rect>
        <rect id="Rectangle-path" fill="#FFFFFF" fill-rule="nonzero" x="132" y="42" width="66" height="134"></rect>
        <g id="Group" transform="translate(159.000000, 151.000000)">
            <rect id="Rectangle" fill="#000000" x="0" y="0" width="36" height="22"></rect>
            <path d="M30.239341,4 L5.68763637,4 C4.7719091,4 4,4.6568049 4,5.46681465 L4,17.5333207 C4,18.3433305 4.7719091,19 5.72422728,19 L12.4308637,19 C13.1499546,19 13.7662728,18.625785 14.0252728,18.0936282 L15.9754091,14.0868882 C16.30425,13.4112711 17.0868183,12.9359572 18,12.9359572 C18.9131819,12.9359572 19.69575,13.4112711 20.0245909,14.0868882 L21.9747274,18.0936282 C22.2337274,18.625785 22.8500455,19 23.5325456,19 L30.239341,19 C31.228091,19 32,18.3433305 32,17.5333207 L32,5.46681465 C32,4.6568049 31.228091,4 30.239341,4 Z M11.5847539,14.3846154 C9.97228418,14.3846154 8.66666667,13.0938707 8.66666667,11.4999261 C8.66666667,9.90598141 9.97228418,8.61538462 11.5847539,8.61538462 C13.1970742,8.61538462 14.5,9.90598141 14.5,11.4999261 C14.5,13.0938707 13.194233,14.3846154 11.5847539,14.3846154 Z M24.4166666,14.3846154 C22.8051354,14.3846154 21.5,13.0938666 21.5,11.499926 C21.5,9.90613327 22.8051354,8.61538462 24.4166666,8.61538462 C26.0281979,8.61538462 27.3333333,9.90613327 27.3333333,11.499926 C27.3333333,13.0938666 26.0281979,14.3846154 24.4166666,14.3846154 Z" id="Imported-Layers" fill="#FFFFFF" fill-rule="nonzero"></path>
        </g>
        <path d="M232.265595,227.662949 C232.265595,227.613219 232.265595,227.561375 232.265595,227.507543 L232.246942,219.003727 L232.265595,217.070477 L232.246942,219.003727 L232.265595,227.507543 C232.265595,227.561375 232.265595,227.613219 232.265595,227.662949 L232.265595,231.740801 L233.310111,231.616477 C234.450001,231.533552 236.132791,231.492152 238.358605,231.492152 C242.192601,231.492152 244.855744,229.793005 246.34791,226.394836 C246.816326,225.333972 247.137515,224.165319 247.311601,222.888877 C247.398644,222.250718 247.440051,221.720224 247.435948,221.29752 L247.404861,214.956956 C246.638012,199.859824 245.156291,188.28929 242.95945,180.245476 C240.766837,172.201663 238.81869,165.827904 237.115134,161.124325 L191.852769,161 C187.351401,182.504085 178.40052,199.246406 165,211.227212 C168.071375,225.491368 175.239988,225.655103 186.505841,211.718295 L186.505841,258.097655 C186.518276,258.47063 186.557694,258.911983 186.623971,259.42159 C186.785622,260.698033 187.081941,261.866685 187.513053,262.927549 C188.80216,266.101934 191.036181,267.792875 194.215365,268 C197.398652,267.792875 199.634787,266.101934 200.923894,262.927549 C201.354881,261.866685 201.651325,260.697908 201.812976,259.42159 C201.879253,258.911858 201.916557,258.47063 201.924888,258.097655 L201.924888,242.544625 L201.924888,227.998625 L201.924888,242.544625 L202.969404,242.544625 C204.109295,242.461825 205.792085,242.4203 208.017899,242.4203 C211.851895,242.4203 214.515038,240.721278 216.007204,237.322984 C216.47562,236.262121 216.796808,235.093468 216.970894,233.817025 C217.041399,233.307294 217.082807,232.865941 217.095241,232.492966 L217.095241,223.168608 L217.095241,232.492966 L217.095241,237.714607 L218.139758,237.714607 C219.279648,237.631683 220.962438,237.590282 223.188252,237.590282 C227.022248,237.590282 229.685391,235.891136 231.177557,232.492966 C231.645973,231.431979 231.967161,230.263326 232.141247,228.987007 C232.211752,228.477276 232.25316,228.035923 232.265595,227.662949 Z M232.209638,215.95777 L232.246942,219.003727 L232.209638,215.95777 Z" id="Shape" stroke="#000000" stroke-width="2" fill="#FFFFFF" transform="translate(206.218113, 214.500000) scale(1, -1) translate(-206.218113, -214.500000) "></path>
        <g id="arrow,-next,-share-svg-icon" transform="translate(228.000000, 45.000000)" fill="#FFFFFF" fill-rule="nonzero" stroke="#000000" stroke-width="2">
            <path d="M71.142816,32.778308 L50.457195,13.5769586 C48.8901025,11.9768461 47.0095915,13.5769586 47.0095915,16.1371385 L47.0095915,25.7378132 C32.2789221,25.7378132 19.7421821,35.0184655 13.7872306,47.4993426 C11.5933011,51.659635 10.3396271,56.1399498 9.39937157,60.6202647 C8.77253457,63.8204896 13.4738121,65.4206021 15.3543231,62.5403997 C22.2495301,51.3396125 33.8460146,43.9790952 47.0095915,43.9790952 L47.0095915,54.5398374 C47.0095915,57.1000173 48.8901025,58.7001298 50.457195,57.1000173 L71.142816,37.8986679 C72.39649,36.6185779 72.39649,34.058398 71.142816,32.778308 Z" id="share" transform="translate(40.712676, 38.489960) rotate(30.000000) translate(-40.712676, -38.489960) "></path>
            <path d="M236.621203,147.396303 L215.935582,128.194954 C214.36849,126.594842 212.487979,128.194954 212.487979,130.755134 L212.487979,140.355809 C197.757309,140.355809 185.220569,149.636461 179.265618,162.117338 C177.071688,166.27763 175.818014,170.757945 174.877759,175.23826 C174.250922,178.438485 178.952199,180.038598 180.83271,177.158395 C187.727917,165.957608 199.324402,158.597091 212.487979,158.597091 L212.487979,169.157833 C212.487979,171.718013 214.36849,173.318125 215.935582,171.718013 L236.621203,152.516663 C237.874877,151.236573 237.874877,148.676393 236.621203,147.396303 Z" id="share" transform="translate(206.191063, 153.107956) rotate(140.000000) translate(-206.191063, -153.107956) "></path>
        </g>
        <g id="Group-2" transform="translate(329.000000, 62.000000)" fill-rule="nonzero">
            <polygon id="Rectangle-path-Copy" fill="#000000" points="146 0 146 78 -5.68434189e-14 78 -5.68434189e-14 7.48950451e-15"></polygon>
            <path d="M68.1285714,8.83783784 C70.0428571,18.2252252 71,28.2792793 71,39 C71,49.7207207 70.0428571,59.7747748 68.1285714,69.1621622 C57.9190476,72.3873874 47.7095238,74 37.5,74 C27.2904762,74 17.747619,72.3873874 8.87142857,69.1621622 C5.62380952,59.7747748 4,49.7207207 4,39 C4,28.2792793 5.62380952,18.2252252 8.87142857,8.83783784 C17.747619,5.61261261 27.2904762,4 37.5,4 C47.7095238,4 57.9190476,5.61261261 68.1285714,8.83783784 Z" id="Rectangle-path-Copy" fill="#FFFFFF"></path>
            <path d="M137.128571,8.83783784 C140.37619,18.2252252 142,28.2792793 142,39 C142,49.7207207 140.37619,59.7747748 137.128571,69.1621622 C128.252381,72.3873874 118.709524,74 108.5,74 C98.2904762,74 88.0809524,72.3873874 77.8714286,69.1621622 C75.9571429,59.7747748 75,49.7207207 75,39 C75,28.2792793 75.9571429,18.2252252 77.8714286,8.83783784 C88.0809524,5.61261261 98.2904762,4 108.5,4 C118.709524,4 128.252381,5.61261261 137.128571,8.83783784 Z" id="Rectangle-path-Copy" fill="#FFFFFF"></path>
        </g>
        <g id="Group-3" transform="translate(144.000000, 90.000000)" fill-rule="nonzero">
            <path d="M18.13971,0.464592121 C22.7185104,-0.995665495 27.9377139,0.921803313 27.9997778,7.13452893 C28.0737979,12.4927993 21.3347509,16.1867017 16.9581078,12.9657556 C12.2861958,10.141716 12.971421,2.33293547 18.13971,0.464592121 Z" id="path16" fill="#008ADC"></path>
            <path d="M39.9053272,2.02053624 C41.4568096,1.12811377 42.1532738,3.03836181 41.5834921,4.65754016 C38.3274082,14.3453248 34.8766979,24.0778596 29.727006,32.949312 C27.8097601,35.9595853 25.7315565,39.3341932 22.2900401,40.7430202 C18.5173295,41.7423327 15.7576485,38.1542791 13.7750587,35.5045072 C7.80766716,26.6113997 4.27267012,16.3867517 0.65932612,6.38202058 C0.168778235,4.83429716 -0.961986149,1.69541827 1.72140677,1.85570966 C3.76520027,4.44124662 4.84798531,7.61382001 6.50153904,10.4404596 C10.0985644,16.9336224 13.5381956,23.6115287 18.2619065,29.3763066 C19.1788917,30.251068 20.5532602,31.9859257 21.8849865,30.8657728 C23.9669111,29.4167187 25.2947427,27.17041 26.7387439,25.1380664 C31.0657818,18.4859554 34.7926825,11.4626217 38.3271125,4.36396016 C38.809157,3.56766843 39.1002962,2.56208262 39.9053272,2.02053624 Z" id="path20" fill="#F5750C"></path>
        </g>
        <g id="Group-3" transform="translate(351.000000, 90.000000)" fill-rule="nonzero">
            <path d="M13.8207314,0.353974949 C17.3093412,-0.758602282 21.2858772,0.702326334 21.333164,5.43583156 C21.3895603,9.51832326 16.2550483,12.3327251 12.9204631,9.87867095 C9.3609111,7.72702172 9.8829874,1.77747464 13.8207314,0.353974949 Z" id="path16" fill="#008ADC"></path>
            <path d="M30.4040588,1.53945618 C31.5861406,0.859515257 32.11678,2.31494233 31.6826606,3.54860203 C29.2018348,10.9297713 26.5727222,18.3450359 22.6491474,25.1042377 C21.1883886,27.3977793 19.6049954,29.9689091 16.9828877,31.0423011 C14.1084416,31.803682 12.0058274,29.0699269 10.4952828,27.0510531 C5.94869879,20.2753522 3.25536771,12.4851442 0.50234371,4.86249187 C0.128592941,3.68327403 -0.732941828,1.29174726 1.31154802,1.41387403 C2.86872402,3.38380695 3.6937031,5.80100572 4.95355356,7.95463587 C7.69414433,12.9018076 10.3148157,17.9897362 13.9138336,22.3819479 C14.6124889,23.0484328 15.6596268,24.3702291 16.6742754,23.5167793 C18.2605037,22.412738 19.2721849,20.7012648 20.3723763,19.1528125 C23.6691671,14.0845374 26.5087105,8.73342603 29.2016096,3.32492203 C29.5688816,2.71822356 29.7907019,1.95206295 30.4040588,1.53945618 Z" id="path20" fill="#F5750C"></path>
        </g>
        <g id="Group-3" transform="translate(422.000000, 90.000000)" fill-rule="nonzero">
            <path d="M13.8207314,0.353974949 C17.3093412,-0.758602282 21.2858772,0.702326334 21.333164,5.43583156 C21.3895603,9.51832326 16.2550483,12.3327251 12.9204631,9.87867095 C9.3609111,7.72702172 9.8829874,1.77747464 13.8207314,0.353974949 Z" id="path16" fill="#008ADC"></path>
            <path d="M30.4040588,1.53945618 C31.5861406,0.859515257 32.11678,2.31494233 31.6826606,3.54860203 C29.2018348,10.9297713 26.5727222,18.3450359 22.6491474,25.1042377 C21.1883886,27.3977793 19.6049954,29.9689091 16.9828877,31.0423011 C14.1084416,31.803682 12.0058274,29.0699269 10.4952828,27.0510531 C5.94869879,20.2753522 3.25536771,12.4851442 0.50234371,4.86249187 C0.128592941,3.68327403 -0.732941828,1.29174726 1.31154802,1.41387403 C2.86872402,3.38380695 3.6937031,5.80100572 4.95355356,7.95463587 C7.69414433,12.9018076 10.3148157,17.9897362 13.9138336,22.3819479 C14.6124889,23.0484328 15.6596268,24.3702291 16.6742754,23.5167793 C18.2605037,22.412738 19.2721849,20.7012648 20.3723763,19.1528125 C23.6691671,14.0845374 26.5087105,8.73342603 29.2016096,3.32492203 C29.5688816,2.71822356 29.7907019,1.95206295 30.4040588,1.53945618 Z" id="path20" fill="#F5750C"></path>
        </g>
    </g>
</svg>