# Blender v2.79 (sub 0) OBJ File: 'building.blend'
# www.blender.org
mtllib building2.mtl
o pCube3
v -0.606220 0.004348 0.210706
v -0.618362 0.007602 0.210706
v -0.618362 0.007602 -0.226469
v -0.606220 0.004348 -0.226469
v -0.627251 0.016491 0.210706
v -0.627251 0.016491 -0.226469
v -0.630505 0.028633 0.210706
v -0.630505 0.028633 -0.226469
v -0.606220 0.028633 0.234991
v -0.606220 0.016491 0.231737
v 0.390266 0.016491 0.231737
v 0.390266 0.028633 0.234991
v -0.606220 0.007602 0.222848
v 0.390266 0.007602 0.222848
v 0.390266 0.004348 0.210706
v -0.627251 0.028633 0.222848
v -0.627251 1.031624 0.222848
v -0.630505 1.031624 0.210706
v -0.618362 0.028633 0.231737
v -0.618362 1.031624 0.231737
v -0.606220 1.031624 0.234991
v 0.414551 0.028633 0.210706
v 0.411298 0.016491 0.210706
v 0.411298 0.016491 -0.226469
v 0.414551 0.028633 -0.226469
v 0.402409 0.007602 0.210706
v 0.402409 0.007602 -0.226469
v 0.390266 0.004348 -0.226469
v 0.402409 0.028633 0.231737
v 0.402409 1.031624 0.231737
v 0.390266 1.031624 0.234991
v 0.411298 0.028633 0.222848
v 0.411298 1.031624 0.222848
v 0.414551 1.031624 0.210706
v -0.627251 1.043767 0.210706
v -0.627251 1.043767 -0.226469
v -0.630505 1.031624 -0.226469
v -0.618362 1.052655 0.210706
v -0.618362 1.052655 -0.226469
v -0.606220 1.055909 0.210706
v -0.606220 1.055909 -0.226469
v -0.606220 1.052655 0.222848
v 0.390266 1.052655 0.222848
v 0.390266 1.055909 0.210706
v -0.606220 1.043767 0.231737
v 0.390266 1.043767 0.231737
v 0.402409 1.052655 0.210706
v 0.402409 1.052655 -0.226469
v 0.390266 1.055909 -0.226469
v 0.411298 1.043767 0.210706
v 0.411298 1.043767 -0.226469
v 0.414551 1.031624 -0.226469
v -0.627251 1.031624 -0.238611
v -0.627251 0.028633 -0.238611
v -0.618362 1.031624 -0.247500
v -0.618362 0.028633 -0.247500
v -0.606220 1.031624 -0.250753
v -0.606220 0.028633 -0.250753
v -0.606220 1.043767 -0.247500
v 0.390266 1.043767 -0.247500
v 0.390266 1.031624 -0.250753
v -0.606220 1.052655 -0.238611
v 0.390266 1.052655 -0.238611
v 0.402409 1.031624 -0.247500
v 0.402409 0.028633 -0.247500
v 0.390266 0.028633 -0.250753
v 0.411298 1.031624 -0.238611
v 0.411298 0.028633 -0.238611
v -0.606220 0.007602 -0.238611
v 0.390266 0.007602 -0.238611
v -0.606220 0.016491 -0.247500
v 0.390266 0.016491 -0.247500
v -0.625425 0.018140 0.221199
v -0.616713 0.009428 0.221199
v -0.616713 0.018140 0.229911
v 0.400759 0.009428 0.221199
v 0.409471 0.018140 0.221199
v 0.400759 0.018140 0.229911
v -0.616713 1.050829 0.221199
v -0.625425 1.042117 0.221199
v -0.616713 1.042117 0.229911
v 0.409471 1.042117 0.221199
v 0.400759 1.050829 0.221199
v 0.400759 1.042117 0.229911
v -0.616713 1.042117 -0.245674
v -0.625425 1.042117 -0.236962
v -0.616713 1.050829 -0.236962
v 0.409471 1.042117 -0.236962
v 0.400759 1.042117 -0.245674
v 0.400759 1.050829 -0.236962
v -0.616713 0.009428 -0.236962
v -0.625425 0.018140 -0.236962
v -0.616713 0.018140 -0.245674
v 0.409471 0.018140 -0.236962
v 0.400759 0.009428 -0.236962
v 0.400759 0.018140 -0.245674
vt 0.336541 0.939749
vt 0.334576 0.945839
vt 0.334576 0.530202
vt 0.336541 0.536292
vt 0.332616 0.951837
vt 0.332616 0.524204
vt 0.299448 0.024108
vt 0.294674 0.034460
vt 0.135338 0.034460
vt 0.130564 0.024108
vt 0.534577 0.034460
vt 0.534511 0.030328
vt 0.872262 0.030330
vt 0.872199 0.034460
vt 0.534326 0.024108
vt 0.872451 0.024108
vt 0.336421 0.962161
vt 0.497608 0.939749
vt 0.497728 0.962161
vt 0.303525 0.029019
vt 0.303525 0.467477
vt 0.294674 0.462036
vt 0.526350 0.029019
vt 0.531319 0.032359
vt 0.531316 0.464142
vt 0.526350 0.467477
vt 0.534577 0.462036
vt 0.334413 0.034460
vt 0.329639 0.024108
vt 0.498523 0.024108
vt 0.493749 0.034460
vt 0.501533 0.951837
vt 0.499573 0.945841
vt 0.499573 0.530200
vt 0.501533 0.524204
vt 0.497608 0.536292
vt 0.875461 0.032354
vt 0.875458 0.464138
vt 0.872199 0.462036
vt 0.880427 0.029019
vt 0.880427 0.467477
vt 0.325562 0.029019
vt 0.334413 0.462036
vt 0.325562 0.467477
vt 0.299448 0.472389
vt 0.130564 0.472389
vt 0.135338 0.462036
vt 0.130419 0.525274
vt 0.132493 0.531271
vt 0.132496 0.946862
vt 0.130419 0.952906
vt 0.134571 0.537361
vt 0.134571 0.940819
vt 0.134444 0.514949
vt 0.305057 0.514949
vt 0.304930 0.537361
vt 0.534326 0.472389
vt 0.534514 0.466167
vt 0.872266 0.466168
vt 0.872451 0.472389
vt 0.307009 0.531269
vt 0.307005 0.946863
vt 0.304930 0.940819
vt 0.309082 0.525274
vt 0.309082 0.952906
vt 0.329639 0.472389
vt 0.493749 0.462036
vt 0.498523 0.472389
vt 0.126487 0.467477
vt 0.126487 0.029019
vt 0.526350 0.523195
vt 0.531359 0.526385
vt 0.531316 0.958318
vt 0.526350 0.961653
vt 0.534578 0.528636
vt 0.534578 0.956212
vt 0.537032 0.518284
vt 0.869745 0.518284
vt 0.872199 0.528636
vt 0.135809 0.963230
vt 0.135248 0.953469
vt 0.304253 0.953477
vt 0.303692 0.963230
vt 0.875426 0.526397
vt 0.875458 0.958314
vt 0.872199 0.956212
vt 0.880427 0.523195
vt 0.880427 0.961653
vt 0.502600 0.467477
vt 0.502600 0.029019
vt 0.336421 0.513880
vt 0.497728 0.513880
vt 0.534326 0.966565
vt 0.534514 0.960343
vt 0.872266 0.960344
vt 0.872451 0.966565
vt 0.303525 0.024108
vt 0.332616 0.962161
vt 0.334604 0.962161
vt 0.530517 0.024108
vt 0.531830 0.029453
vt 0.526350 0.024108
vt 0.499545 0.962161
vt 0.501533 0.962161
vt 0.325562 0.024108
vt 0.880427 0.024108
vt 0.874976 0.029616
vt 0.876259 0.024108
vt 0.132522 0.514949
vt 0.130419 0.514949
vt 0.303525 0.472389
vt 0.526350 0.472389
vt 0.531800 0.466881
vt 0.530517 0.472389
vt 0.325562 0.472389
vt 0.309082 0.514949
vt 0.306979 0.514949
vt 0.876259 0.472389
vt 0.874946 0.467044
vt 0.880427 0.472389
vt 0.533251 0.518284
vt 0.526350 0.518284
vt 0.126487 0.472389
vt 0.130419 0.963230
vt 0.133070 0.956426
vt 0.133901 0.963230
vt 0.502600 0.472389
vt 0.880427 0.518284
vt 0.873526 0.518284
vt 0.305599 0.963230
vt 0.306416 0.956288
vt 0.309082 0.963230
vt 0.334604 0.513880
vt 0.332616 0.513880
vt 0.126487 0.024108
vt 0.526350 0.966565
vt 0.531800 0.961057
vt 0.530517 0.966565
vt 0.502600 0.024108
vt 0.501533 0.513880
vt 0.499545 0.513880
vt 0.876259 0.966565
vt 0.874946 0.961220
vt 0.880427 0.966565
vn -0.0032 -1.0000 0.0072
vn -0.4998 -0.8661 0.0055
vn -0.4998 -0.8661 -0.0055
vn -0.0032 -1.0000 -0.0072
vn -0.7071 -0.7071 0.0054
vn -0.7071 -0.7071 -0.0054
vn -0.9661 -0.2583 0.0053
vn -1.0000 -0.0032 0.0072
vn -1.0000 -0.0032 -0.0072
vn -0.9661 -0.2583 -0.0053
vn -0.0032 -0.0032 1.0000
vn -0.0023 -0.4996 0.8662
vn 0.0023 -0.4996 0.8662
vn 0.0032 -0.0032 1.0000
vn -0.0028 -0.7071 0.7071
vn 0.0028 -0.7071 0.7071
vn -0.0020 -0.9660 0.2586
vn 0.0032 -1.0000 0.0072
vn 0.0020 -0.9660 0.2586
vn -0.9660 -0.0020 0.2586
vn -0.9660 0.0020 0.2586
vn -1.0000 0.0032 0.0072
vn -0.7071 -0.0027 0.7071
vn -0.4996 -0.0023 0.8662
vn -0.4996 0.0023 0.8662
vn -0.7071 0.0027 0.7071
vn -0.0032 0.0032 1.0000
vn 1.0000 -0.0032 0.0072
vn 0.8661 -0.4998 0.0056
vn 0.8661 -0.4998 -0.0056
vn 1.0000 -0.0032 -0.0072
vn 0.7071 -0.7071 0.0054
vn 0.7071 -0.7071 -0.0054
vn 0.2583 -0.9661 0.0053
vn 0.0032 -1.0000 -0.0072
vn 0.2583 -0.9661 -0.0053
vn 0.4996 -0.0023 0.8662
vn 0.4996 0.0023 0.8662
vn 0.0032 0.0032 1.0000
vn 0.7071 -0.0027 0.7071
vn 0.7071 0.0027 0.7071
vn 0.9660 -0.0020 0.2586
vn 1.0000 0.0032 0.0072
vn 0.9660 0.0020 0.2586
vn -0.9661 0.2583 0.0053
vn -0.9661 0.2583 -0.0053
vn -1.0000 0.0032 -0.0072
vn -0.7071 0.7071 0.0054
vn -0.4998 0.8661 0.0056
vn -0.4998 0.8661 -0.0056
vn -0.7071 0.7071 -0.0054
vn -0.0032 1.0000 0.0072
vn -0.0032 1.0000 -0.0072
vn -0.0025 0.8658 0.5003
vn 0.0025 0.8658 0.5003
vn 0.0032 1.0000 0.0072
vn -0.0023 0.4996 0.8662
vn 0.0023 0.4996 0.8662
vn 0.4998 0.8661 0.0056
vn 0.4998 0.8661 -0.0056
vn 0.0032 1.0000 -0.0072
vn 0.7071 0.7071 0.0054
vn 0.7071 0.7071 -0.0054
vn 0.9661 0.2583 0.0053
vn 1.0000 0.0032 -0.0072
vn 0.9661 0.2583 -0.0053
vn -0.9660 0.0020 -0.2586
vn -0.9660 -0.0020 -0.2586
vn -0.7071 0.0027 -0.7071
vn -0.4997 0.0023 -0.8662
vn -0.4997 -0.0023 -0.8662
vn -0.7071 -0.0027 -0.7071
vn -0.0032 0.0032 -1.0000
vn -0.0032 -0.0032 -1.0000
vn -0.0025 0.2586 -0.9660
vn 0.0025 0.2586 -0.9660
vn 0.0032 0.0032 -1.0000
vn -0.0020 0.7071 -0.7071
vn -0.0025 0.8658 -0.5003
vn 0.0025 0.8658 -0.5003
vn 0.0020 0.7071 -0.7071
vn 0.2586 0.0025 -0.9660
vn 0.2586 -0.0025 -0.9660
vn 0.0032 -0.0032 -1.0000
vn 0.7071 0.0020 -0.7071
vn 0.7071 0.0027 -0.7071
vn 0.7071 -0.0027 -0.7071
vn 0.7071 -0.0020 -0.7071
vn 0.9660 0.0020 -0.2586
vn 0.9660 -0.0020 -0.2586
vn -0.0020 -0.9660 -0.2586
vn 0.0020 -0.9660 -0.2586
vn -0.0028 -0.7071 -0.7071
vn -0.0020 -0.7071 -0.7071
vn 0.0020 -0.7071 -0.7071
vn 0.0028 -0.7071 -0.7071
vn -0.0025 -0.2586 -0.9660
vn 0.0025 -0.2586 -0.9660
vn -0.9461 -0.2290 0.2290
vn -0.7024 -0.5185 0.4876
vn -0.5185 -0.7024 0.4877
vn -0.2290 -0.9461 0.2290
vn -0.4927 -0.4927 0.7173
vn -0.2290 -0.2290 0.9461
vn 0.2290 -0.9461 0.2290
vn 0.5185 -0.7024 0.4877
vn 0.7024 -0.5185 0.4876
vn 0.9461 -0.2290 0.2290
vn 0.4927 -0.4927 0.7173
vn 0.2290 -0.2290 0.9461
vn -0.2290 0.9461 0.2290
vn -0.5185 0.7024 0.4877
vn -0.7025 0.5185 0.4875
vn -0.9461 0.2290 0.2290
vn -0.4927 0.4927 0.7173
vn -0.2290 0.2290 0.9461
vn 0.9461 0.2290 0.2290
vn 0.7025 0.5185 0.4875
vn 0.5185 0.7024 0.4877
vn 0.2290 0.9461 0.2290
vn 0.4927 0.4927 0.7173
vn 0.2290 0.2290 0.9461
vn -0.2290 0.2290 -0.9461
vn -0.4927 0.4927 -0.7173
vn -0.7024 0.5185 -0.4876
vn -0.9461 0.2290 -0.2290
vn -0.5185 0.7024 -0.4877
vn -0.2290 0.9461 -0.2290
vn 0.9461 0.2290 -0.2290
vn 0.7024 0.5185 -0.4875
vn 0.4927 0.4927 -0.7173
vn 0.2290 0.2290 -0.9461
vn 0.5185 0.7024 -0.4877
vn 0.2290 0.9461 -0.2290
vn -0.2290 -0.9461 -0.2290
vn -0.5185 -0.7024 -0.4877
vn -0.7024 -0.5185 -0.4876
vn -0.9461 -0.2290 -0.2290
vn -0.4927 -0.4927 -0.7173
vn -0.2290 -0.2290 -0.9461
vn 0.9461 -0.2290 -0.2290
vn 0.7025 -0.5185 -0.4875
vn 0.5185 -0.7024 -0.4877
vn 0.2290 -0.9461 -0.2290
vn 0.4927 -0.4927 -0.7173
vn 0.2290 -0.2290 -0.9461
usemtl Material.001
s 1
f 1/1/1 2/2/2 3/3/3 4/4/4
f 2/2/2 5/5/5 6/6/6 3/3/3
f 5/7/7 7/8/8 8/9/9 6/10/10
f 9/11/11 10/12/12 11/13/13 12/14/14
f 10/12/12 13/15/15 14/16/16 11/13/13
f 13/17/17 1/1/1 15/18/18 14/19/19
f 7/8/8 16/20/20 17/21/21 18/22/22
f 16/23/23 19/24/24 20/25/25 17/26/26
f 19/24/24 9/11/11 21/27/27 20/25/25
f 22/28/28 23/29/29 24/30/30 25/31/31
f 23/32/29 26/33/32 27/34/33 24/35/30
f 26/33/34 15/18/18 28/36/35 27/34/36
f 12/14/14 29/37/37 30/38/38 31/39/39
f 29/37/37 32/40/40 33/41/41 30/38/38
f 32/42/42 22/28/28 34/43/43 33/44/44
f 18/22/22 35/45/45 36/46/46 37/47/47
f 35/48/48 38/49/49 39/50/50 36/51/51
f 38/49/49 40/52/52 41/53/53 39/50/50
f 40/52/52 42/54/54 43/55/55 44/56/56
f 42/57/54 45/58/57 46/59/58 43/60/55
f 45/58/57 21/27/27 31/39/39 46/59/58
f 44/56/56 47/61/59 48/62/60 49/63/61
f 47/61/59 50/64/62 51/65/63 48/62/60
f 50/66/64 34/43/43 52/67/65 51/68/66
f 37/47/47 53/69/67 54/70/68 8/9/9
f 53/71/69 55/72/70 56/73/71 54/74/72
f 55/72/70 57/75/73 58/76/74 56/73/71
f 57/75/73 59/77/75 60/78/76 61/79/77
f 59/80/78 62/81/79 63/82/80 60/83/81
f 62/81/79 41/53/53 49/63/61 63/82/80
f 61/79/77 64/84/82 65/85/83 66/86/84
f 64/84/85 67/87/86 68/88/87 65/85/88
f 67/89/89 52/67/65 25/31/31 68/90/90
f 4/4/4 69/91/91 70/92/92 28/36/35
f 69/93/93 71/94/94 72/95/95 70/96/96
f 71/94/97 58/76/74 66/86/84 72/95/98
f 9/11/11 12/14/14 31/39/39 21/27/27
f 40/52/52 44/56/56 49/63/61 41/53/53
f 57/75/73 61/79/77 66/86/84 58/76/74
f 4/4/4 28/36/35 15/18/18 1/1/1
f 22/28/28 25/31/31 52/67/65 34/43/43
f 8/9/9 7/8/8 18/22/22 37/47/47
f 16/20/20 7/8/8 5/7/7 73/97/99
f 73/98/100 5/5/5 2/2/2 74/99/101
f 2/2/2 1/1/1 13/17/17 74/99/102
f 74/100/101 13/15/15 10/12/12 75/101/103
f 10/12/12 9/11/11 19/24/24 75/101/104
f 75/101/103 19/24/24 16/23/23 73/102/100
f 73/102/100 74/100/101 75/101/103
f 14/19/19 15/18/18 26/33/34 76/103/105
f 76/103/106 26/33/32 23/32/29 77/104/107
f 23/29/29 22/28/28 32/42/42 77/105/108
f 77/106/107 32/40/40 29/37/37 78/107/109
f 29/37/37 12/14/14 11/13/13 78/107/110
f 78/107/109 11/13/13 14/16/16 76/108/106
f 76/108/106 77/106/107 78/107/109
f 42/54/54 40/52/52 38/49/49 79/109/111
f 79/109/112 38/49/49 35/48/48 80/110/113
f 35/45/45 18/22/22 17/21/21 80/111/114
f 80/112/113 17/26/26 20/25/25 81/113/115
f 20/25/25 21/27/27 45/58/57 81/113/116
f 81/113/115 45/58/57 42/57/54 79/114/112
f 79/114/112 80/112/113 81/113/115
f 33/44/44 34/43/43 50/66/64 82/115/117
f 82/116/118 50/64/62 47/61/59 83/117/119
f 47/61/59 44/56/56 43/55/55 83/117/120
f 83/118/119 43/60/55 46/59/58 84/119/121
f 46/59/58 31/39/39 30/38/38 84/119/122
f 84/119/121 30/38/38 33/41/41 82/120/118
f 82/120/118 83/118/119 84/119/121
f 59/77/75 57/75/73 55/72/70 85/121/123
f 85/121/124 55/72/70 53/71/69 86/122/125
f 53/69/67 37/47/47 36/46/46 86/123/126
f 86/124/125 36/51/51 39/50/50 87/125/127
f 39/50/50 41/53/53 62/81/79 87/125/128
f 87/125/127 62/81/79 59/80/78 85/126/124
f 85/126/124 86/124/125 87/125/127
f 51/68/66 52/67/65 67/89/89 88/127/129
f 88/128/130 67/87/86 64/84/85 89/129/131
f 64/84/82 61/79/77 60/78/76 89/129/132
f 89/130/131 60/83/81 63/82/80 90/131/133
f 63/82/80 49/63/61 48/62/60 90/131/134
f 90/131/133 48/62/60 51/65/63 88/132/130
f 88/132/130 89/130/131 90/131/133
f 69/91/91 4/4/4 3/3/3 91/133/135
f 91/133/136 3/3/3 6/6/6 92/134/137
f 6/10/10 8/9/9 54/70/68 92/135/138
f 92/136/137 54/74/72 56/73/71 93/137/139
f 56/73/71 58/76/74 71/94/97 93/137/140
f 93/137/139 71/94/94 69/93/93 91/138/136
f 91/138/136 92/136/137 93/137/139
f 68/90/90 25/31/31 24/30/30 94/139/141
f 94/140/142 24/35/30 27/34/33 95/141/143
f 27/34/36 28/36/35 70/92/92 95/141/144
f 95/142/143 70/96/96 72/95/95 96/143/145
f 72/95/98 66/86/84 65/85/83 96/143/146
f 96/143/145 65/85/88 68/88/87 94/144/142
f 94/144/142 95/142/143 96/143/145
