# Blender v2.79 (sub 0) OBJ File: 'house.blend'
# www.blender.org
mtllib house.mtl
o pCube1
v -0.195588 0.634351 0.251559
v -0.119852 0.634351 0.251559
v -0.119852 0.786903 0.251559
v -0.195588 0.786903 0.251559
v -0.119852 0.786904 0.175823
v -0.195588 0.786904 0.175823
v -0.119852 0.634351 0.175823
v -0.195588 0.634351 0.175823
vt 0.570846 0.566218
vt 0.570846 0.498927
vt 0.638137 0.498927
vt 0.638137 0.566218
vt 0.705427 0.498927
vt 0.705427 0.566218
vt 0.772718 0.498927
vt 0.772718 0.566218
vt 0.840009 0.498927
vt 0.840009 0.566218
vt 0.570846 0.431636
vt 0.638137 0.431636
vt 0.570846 0.633509
vt 0.638137 0.633509
vn 0.0000 -0.0000 1.0000
vn 0.0000 1.0000 0.0000
vn 0.0000 0.0000 -1.0000
vn 0.0000 -1.0000 -0.0000
vn 1.0000 0.0000 0.0000
vn -1.0000 0.0000 0.0000
usemtl Material.003
s 1
f 1/1/1 2/2/1 3/3/1 4/4/1
f 4/4/2 3/3/2 5/5/2 6/6/2
f 6/6/3 5/5/3 7/7/3 8/8/3
f 8/8/4 7/7/4 2/9/4 1/10/4
f 2/2/5 7/11/5 5/12/5 3/3/5
f 8/13/6 1/1/6 4/4/6 6/14/6
o SM_Cabana_02:SM_Cabana1
v 0.299669 0.528689 -0.348640
v 0.144781 0.651761 -0.348640
v 0.144980 0.689929 -0.348640
v 0.347961 0.528689 -0.348640
v 0.299669 0.528689 -0.312265
v 0.144781 0.651761 -0.312265
v 0.347961 0.528689 -0.312265
v 0.299669 0.041702 -0.312265
v 0.299669 0.440962 -0.312265
v 0.299669 0.440962 0.315642
v 0.299669 0.041702 0.315642
v 0.143422 0.440963 -0.312265
v 0.141341 0.041702 -0.312265
v 0.006367 0.761599 -0.348640
v 0.006367 0.799894 -0.348640
v 0.006367 0.761599 -0.312265
v 0.144980 0.689929 -0.312265
v 0.144980 0.689929 0.315642
v 0.347961 0.528689 0.315642
v 0.006367 0.440963 -0.312265
v 0.141341 0.041702 -0.287649
v 0.143422 0.440963 -0.287649
v 0.006367 0.041702 -0.287649
v 0.006367 0.440963 -0.287649
v 0.006367 0.799894 -0.312265
v 0.006367 0.799894 0.315642
v 0.299669 0.528689 0.352018
v 0.347961 0.528689 0.352018
v 0.144980 0.689929 0.352018
v 0.144781 0.651761 0.352018
v 0.299669 0.528689 0.315642
v 0.144781 0.651761 0.315642
v 0.143422 0.440963 0.315642
v 0.141341 0.041702 0.315642
v 0.006367 0.799894 0.352018
v 0.006367 0.761598 0.352018
v 0.006367 0.761598 0.315642
v 0.006367 0.440963 0.315642
v 0.143422 0.440963 0.291026
v 0.141341 0.041702 0.291026
v 0.006367 0.041702 0.291026
v 0.006367 0.440963 0.291026
v -0.286934 0.528689 -0.348640
v -0.335226 0.528689 -0.348640
v -0.132245 0.689929 -0.348640
v -0.132046 0.651761 -0.348640
v -0.286934 0.528689 -0.312264
v -0.132046 0.651761 -0.312264
v -0.335226 0.528689 -0.312264
v -0.286934 0.041702 -0.312264
v -0.286934 0.041702 0.315642
v -0.286934 0.440962 0.315642
v -0.286934 0.440962 -0.312264
v -0.130687 0.440963 -0.312264
v -0.128606 0.041702 -0.312264
v -0.132245 0.689929 -0.312264
v -0.335226 0.528689 0.315642
v -0.132245 0.689929 0.315642
v -0.130687 0.440963 -0.287649
v -0.128606 0.041702 -0.287649
v -0.286934 0.528689 0.352018
v -0.132046 0.651761 0.352018
v -0.132245 0.689929 0.352018
v -0.335226 0.528689 0.352018
v -0.286934 0.528689 0.315642
v -0.132046 0.651761 0.315642
v -0.130687 0.440963 0.315642
v -0.128606 0.041702 0.315642
v -0.128606 0.041702 0.291026
v -0.130687 0.440963 0.291026
vt 0.965802 0.707396
vt 0.965802 0.847918
vt 0.943917 0.869657
vt 0.943917 0.685529
vt 0.995442 0.707396
vt 0.995442 0.847918
vt 0.914277 0.685529
vt 0.914277 0.654581
vt 0.943917 0.654581
vt 0.988328 0.011684
vt 0.988328 0.332045
vt 0.498765 0.332045
vt 0.498765 0.011684
vt 0.301370 0.739561
vt 0.201005 0.739561
vt 0.201005 0.909926
vt 0.301370 0.810460
vt 0.201005 0.416884
vt 0.301370 0.416884
vt 0.965802 0.973329
vt 0.943917 0.995231
vt 0.995442 0.973329
vt 0.914277 0.869657
vt 0.402631 0.869657
vt 0.402631 0.685529
vt 0.113519 0.739561
vt 0.113519 0.998695
vt 0.095313 0.711102
vt 0.095313 0.417805
vt 0.113707 0.417805
vt 0.113707 0.714262
vt 0.193067 0.417805
vt 0.193067 0.714262
vt 0.914277 0.995231
vt 0.402631 0.995231
vt 0.193067 0.732660
vt 0.104346 0.732660
vt 0.351106 0.707396
vt 0.372990 0.685529
vt 0.372990 0.869657
vt 0.351106 0.847918
vt 0.321465 0.707396
vt 0.321465 0.847918
vt 0.372990 0.654581
vt 0.402631 0.654581
vt 0.301358 0.739530
vt 0.301382 0.810429
vt 0.201051 0.909928
vt 0.200993 0.739563
vt 0.200884 0.416886
vt 0.301249 0.416852
vt 0.372990 0.995231
vt 0.351106 0.973329
vt 0.321465 0.973329
vt 0.113595 0.998726
vt 0.113507 0.739593
vt 0.095312 0.711102
vt 0.113706 0.714262
vt 0.113706 0.417804
vt 0.095312 0.417805
vt 0.193068 0.417805
vt 0.193068 0.714262
vt 0.104346 0.732660
vt 0.193068 0.732660
vt 0.988328 0.402436
vt 0.498765 0.402436
vt 0.965802 0.707396
vt 0.943917 0.685529
vt 0.943917 0.869657
vt 0.965802 0.847918
vt 0.995442 0.707396
vt 0.995442 0.847918
vt 0.914277 0.685529
vt 0.943917 0.654581
vt 0.914277 0.654581
vt 0.988328 0.011684
vt 0.498765 0.011684
vt 0.498765 0.332045
vt 0.988328 0.332045
vt 0.301370 0.739561
vt 0.301370 0.810460
vt 0.201005 0.909926
vt 0.201005 0.739561
vt 0.201005 0.416884
vt 0.301370 0.416884
vt 0.914277 0.869657
vt 0.402631 0.685529
vt 0.402631 0.869657
vt 0.095313 0.711102
vt 0.113707 0.714262
vt 0.113707 0.417805
vt 0.095313 0.417805
vt 0.104346 0.732660
vt 0.351106 0.707396
vt 0.351106 0.847918
vt 0.372990 0.869657
vt 0.372990 0.685529
vt 0.321465 0.707396
vt 0.321465 0.847918
vt 0.402631 0.654581
vt 0.372990 0.654581
vt 0.301358 0.739530
vt 0.200993 0.739563
vt 0.201051 0.909928
vt 0.301382 0.810429
vt 0.200884 0.416886
vt 0.301249 0.416852
vt 0.095312 0.711102
vt 0.095312 0.417805
vt 0.113706 0.417804
vt 0.113706 0.714262
vt 0.104346 0.732660
vt 0.988328 0.402436
vt 0.498765 0.402436
vt 0.559976 0.273982
vt 0.560189 0.127294
vt 0.962954 0.128855
vt 0.962741 0.275543
vt 0.559976 0.273982
vt 0.560173 0.138292
vt 0.962938 0.139853
vt 0.962741 0.275543
vt 0.559976 0.273982
vt 0.560173 0.138292
vt 0.962938 0.139853
vt 0.962741 0.275543
vt 0.559976 0.273982
vt 0.560189 0.127294
vt 0.962954 0.128855
vt 0.962741 0.275543
vn -0.0000 0.0000 -1.0000
vn -0.6221 -0.7829 0.0000
vn -0.6219 -0.7831 0.0000
vn 0.0000 -1.0000 -0.0000
vn 1.0000 0.0000 0.0000
vn -0.6220 -0.7830 -0.0000
vn 0.6218 0.7832 0.0000
vn 0.6220 0.7830 0.0000
vn 0.6221 0.7829 0.0000
vn -1.0000 0.0052 0.0000
vn 0.6219 0.7831 -0.0000
vn 0.0000 -0.0000 1.0000
vn -0.6216 -0.7833 0.0000
vn 0.6221 -0.7829 0.0000
vn 0.6219 -0.7831 0.0000
vn -1.0000 0.0000 0.0000
vn 0.6220 -0.7830 0.0000
vn -0.6218 0.7832 0.0000
vn -0.6220 0.7830 0.0000
vn 1.0000 0.0052 0.0000
usemtl Material.002
s 1
f 9/15/7 10/16/7 11/17/7 12/18/7
f 13/19/8 14/20/9 10/16/9 9/15/8
f 15/21/10 13/22/10 9/23/10 12/18/10
f 16/24/11 17/25/11 18/26/11 19/27/11
f 17/28/7 20/29/7 14/30/7 13/31/7
f 21/32/7 20/29/7 17/28/7 16/33/7
f 11/17/7 10/16/7 22/34/7 23/35/7
f 10/16/9 14/20/9 24/36/12 22/34/12
f 11/17/13 25/37/13 15/21/14 12/18/14
f 15/21/14 25/37/13 26/38/15 27/39/14
f 14/30/7 20/29/7 28/40/7 24/41/7
f 20/42/16 21/43/16 29/44/16 30/45/16
f 31/46/7 32/47/7 30/45/7 29/44/7
f 23/35/17 33/48/14 25/37/13 11/17/13
f 25/37/13 33/48/14 34/49/14 26/38/15
f 32/47/10 28/50/10 20/51/10 30/45/10
f 35/52/18 36/53/18 37/54/18 38/55/18
f 39/56/8 35/52/8 38/55/9 40/57/9
f 27/39/10 36/53/10 35/58/10 39/59/10
f 18/60/18 39/61/18 40/62/18 41/63/18
f 42/64/18 19/65/18 18/60/18 41/63/18
f 37/54/18 43/66/18 44/67/18 38/55/18
f 38/55/9 44/67/19 45/68/19 40/57/9
f 37/54/15 36/53/14 27/39/14 26/38/15
f 40/62/18 45/69/18 46/70/18 41/63/18
f 41/71/16 47/72/16 48/73/16 42/74/16
f 49/75/18 48/73/18 47/72/18 50/76/18
f 43/66/14 37/54/15 26/38/15 34/49/14
f 50/76/10 47/72/10 41/77/10 46/78/10
f 15/21/10 27/39/10 39/59/10 13/22/10
f 13/79/11 39/80/11 18/26/11 17/25/11
f 51/81/7 52/82/7 53/83/7 54/84/7
f 55/85/20 51/81/20 54/84/21 56/86/21
f 57/87/10 52/82/10 51/88/10 55/89/10
f 58/90/22 59/91/22 60/92/22 61/93/22
f 61/94/7 55/95/7 56/96/7 62/97/7
f 63/98/7 58/99/7 61/94/7 62/97/7
f 53/83/7 23/35/7 22/34/7 54/84/7
f 54/84/21 22/34/23 24/36/23 56/86/21
f 53/83/24 52/82/25 57/87/25 64/100/24
f 57/87/25 65/101/25 66/102/24 64/100/24
f 56/96/7 24/41/7 28/40/7 62/97/7
f 62/103/26 67/104/26 68/105/26 63/106/26
f 31/46/7 68/105/7 67/104/7 32/47/7
f 23/35/25 53/83/24 64/100/24 33/48/25
f 64/100/24 66/102/24 34/49/25 33/48/25
f 32/47/10 67/104/10 62/107/10 28/50/10
f 69/108/18 70/109/18 71/110/18 72/111/18
f 73/112/20 74/113/21 70/109/21 69/108/20
f 65/101/10 73/114/10 69/115/10 72/111/10
f 60/116/18 75/117/18 74/118/18 73/119/18
f 76/120/18 75/117/18 60/116/18 59/121/18
f 71/110/18 70/109/18 44/67/18 43/66/18
f 70/109/21 74/113/21 45/68/20 44/67/20
f 71/110/25 66/102/24 65/101/25 72/111/25
f 74/118/18 75/117/18 46/70/18 45/69/18
f 75/122/26 76/123/26 77/124/26 78/125/26
f 49/75/18 50/76/18 78/125/18 77/124/18
f 43/66/25 34/49/25 66/102/24 71/110/25
f 50/76/10 46/78/10 75/126/10 78/125/10
f 57/87/10 55/89/10 73/114/10 65/101/10
f 55/127/22 61/93/22 60/92/22 73/128/22
f 21/129/10 16/130/10 19/131/10 42/132/10
f 31/133/10 29/134/10 48/135/10 49/136/10
f 68/137/10 31/138/10 49/139/10 77/140/10
f 58/141/10 63/142/10 76/143/10 59/144/10
