# Blender v2.79 (sub 0) OBJ File: 'laptop.blend'
# www.blender.org
mtllib laptop.mtl
o pCube1
v 0.520744 0.027457 0.649363
v 0.520744 0.018503 0.649363
v 0.520744 0.018503 -0.649363
v 0.520744 0.027457 -0.649363
v -0.520744 0.018503 0.649363
v -0.520744 0.056859 0.649363
v -0.520744 0.056859 -0.649363
v -0.520744 0.018503 -0.649363
v 0.416605 0.027457 -0.737277
v 0.416605 0.018503 -0.737277
v -0.416605 0.018503 -0.737277
v -0.416605 0.056859 -0.737277
v -0.416605 0.056859 0.737277
v -0.416605 0.018503 0.737277
v 0.416605 0.018503 0.737277
v 0.416605 0.027457 0.737277
v 0.456457 0.018503 0.730585
v 0.456457 0.027457 0.730585
v 0.490242 0.018503 0.711527
v 0.490242 0.027457 0.711527
v 0.512817 0.018503 0.683006
v 0.512817 0.027457 0.683006
v 0.512817 0.018503 -0.683006
v 0.512817 0.027457 -0.683006
v 0.490242 0.018503 -0.711527
v 0.490242 0.027457 -0.711527
v 0.456457 0.018503 -0.730585
v 0.456457 0.027457 -0.730585
v -0.456457 0.056859 0.730585
v -0.456457 0.018503 0.730585
v -0.490242 0.056859 0.711527
v -0.490242 0.018503 0.711527
v -0.512817 0.056859 0.683006
v -0.512817 0.018503 0.683006
v -0.512817 0.056859 -0.683006
v -0.512817 0.018503 -0.683006
v -0.490242 0.056859 -0.711527
v -0.490242 0.018503 -0.711527
v -0.456457 0.056859 -0.730585
v -0.456457 0.018503 -0.730585
vt 0.061105 0.031761
vt 0.061105 0.015819
vt 0.443051 0.015819
vt 0.443051 0.031761
vt 0.364501 0.261233
vt 0.364501 0.282985
vt 0.084054 0.282985
vt 0.084054 0.261233
vt 0.440741 0.434813
vt 0.440741 0.456357
vt 0.076697 0.456357
vt 0.076697 0.434812
vt 0.476516 0.470429
vt 0.476516 0.491664
vt 0.112462 0.491664
vt 0.112462 0.470429
vt 0.094930 0.491664
vt 0.094930 0.470429
vt 0.079042 0.491664
vt 0.079042 0.470429
vt 0.029732 0.015819
vt 0.046338 0.015819
vt 0.046338 0.031761
vt 0.029732 0.031761
vt 0.450050 0.015819
vt 0.450050 0.031761
vt 0.458558 0.015819
vt 0.458558 0.031761
vt 0.468867 0.015819
vt 0.468867 0.031761
vt 0.480741 0.015819
vt 0.480741 0.031761
vt 0.408359 0.290478
vt 0.392888 0.290478
vt 0.392888 0.261233
vt 0.408359 0.261233
vt 0.381202 0.290478
vt 0.381202 0.261233
vt 0.371635 0.282985
vt 0.371635 0.261233
vt 0.076914 0.282985
vt 0.076914 0.261233
vt 0.067409 0.282985
vt 0.067409 0.253740
vt 0.055613 0.282985
vt 0.055613 0.253740
vt 0.040120 0.282985
vt 0.040120 0.253740
vt 0.054234 0.656317
vt 0.058915 0.648022
vt 0.065919 0.642480
vt 0.074185 0.640534
vt 0.393096 0.640583
vt 0.401357 0.642531
vt 0.408360 0.648075
vt 0.413039 0.656372
vt 0.414681 0.666158
vt 0.414651 0.870761
vt 0.413005 0.880546
vt 0.408324 0.888842
vt 0.401320 0.894384
vt 0.393055 0.896329
vt 0.074144 0.896281
vt 0.065883 0.894333
vt 0.058879 0.888789
vt 0.054201 0.880492
vt 0.052559 0.870706
vt 0.052588 0.666103
vt 0.067409 0.238511
vt 0.067410 0.061651
vt 0.067410 0.053163
vt 0.071637 0.046329
vt 0.077700 0.039470
vt 0.085017 0.039470
vt 0.365400 0.039470
vt 0.372692 0.039470
vt 0.381202 0.044535
vt 0.381202 0.051943
vt 0.381202 0.060616
vt 0.381202 0.241799
vt 0.381202 0.250540
vt 0.067409 0.247013
vn 1.0000 0.0000 0.0000
vn -1.0000 0.0000 0.0000
vn 0.0000 0.0000 -1.0000
vn 0.0000 0.0000 1.0000
vn 0.1656 0.0000 0.9862
vn 0.4913 0.0000 0.8710
vn 0.7841 0.0000 0.6206
vn 0.9733 0.0000 0.2293
vn 0.9733 0.0000 -0.2293
vn 0.7841 0.0000 -0.6206
vn 0.4913 0.0000 -0.8710
vn 0.1656 0.0000 -0.9862
vn -0.1656 0.0000 0.9862
vn -0.4913 0.0000 0.8710
vn -0.7841 0.0000 0.6206
vn -0.9733 0.0000 0.2293
vn -0.9733 0.0000 -0.2293
vn -0.7841 0.0000 -0.6206
vn -0.4913 0.0000 -0.8710
vn -0.1656 0.0000 -0.9862
vn 0.0284 0.9996 0.0000
vn 0.0000 -1.0000 -0.0000
usemtl Material.001
s 1
f 1/1/1 2/2/1 3/3/1 4/4/1
f 5/5/2 6/6/2 7/7/2 8/8/2
f 9/9/3 10/10/3 11/11/3 12/12/3
f 13/13/4 14/14/4 15/15/4 16/16/4
f 15/15/5 17/17/5 18/18/5 16/16/5
f 17/17/6 19/19/6 20/20/6 18/18/6
f 19/21/7 21/22/7 22/23/7 20/24/7
f 21/22/8 2/2/8 1/1/8 22/23/8
f 3/3/9 23/25/9 24/26/9 4/4/9
f 23/25/10 25/27/10 26/28/10 24/26/10
f 25/27/11 27/29/11 28/30/11 26/28/11
f 27/29/12 10/31/12 9/32/12 28/30/12
f 13/33/13 29/34/13 30/35/13 14/36/13
f 29/34/14 31/37/14 32/38/14 30/35/14
f 31/37/15 33/39/15 34/40/15 32/38/15
f 33/39/16 6/6/16 5/5/16 34/40/16
f 7/7/17 35/41/17 36/42/17 8/8/17
f 35/41/18 37/43/18 38/44/18 36/42/18
f 37/43/19 39/45/19 40/46/19 38/44/19
f 39/45/20 12/47/20 11/48/20 40/46/20
f 39/49/21 37/50/21 35/51/21 7/52/21 6/53/21 33/54/21 31/55/21 29/56/21 13/57/21 16/58/21 18/59/21 20/60/21 22/61/21 1/62/21 4/63/21 24/64/21 26/65/21 28/66/21 9/67/21 12/68/21
f 11/69/22 10/70/22 27/71/22 25/72/22 23/73/22 3/74/22 2/75/22 21/76/22 19/77/22 17/78/22 15/79/22 14/80/22 30/81/22 32/38/22 34/40/22 5/5/22 8/8/22 36/42/22 38/44/22 40/82/22
o pCube2
v -0.518659 0.042687 0.649305
v -0.527609 0.042411 0.649305
v -0.527609 0.042411 -0.649420
v -0.518659 0.042687 -0.649420
v -0.528897 1.082882 0.649305
v -0.521469 1.084586 0.649305
v -0.521469 1.084586 -0.649420
v -0.528897 1.082882 -0.649420
v -0.521879 0.146776 -0.737334
v -0.530829 0.146500 -0.737334
v -0.525677 0.978794 -0.737334
v -0.518250 0.980497 -0.737334
v -0.518250 0.980497 0.737220
v -0.525677 0.978794 0.737220
v -0.530829 0.146499 0.737220
v -0.521879 0.146776 0.737220
v -0.529596 0.106667 0.730528
v -0.520646 0.106943 0.730528
v -0.528553 0.072897 0.711470
v -0.519603 0.073174 0.711470
v -0.527854 0.050334 0.682949
v -0.518904 0.050610 0.682949
v -0.527854 0.050334 -0.683063
v -0.518904 0.050611 -0.683063
v -0.528553 0.072898 -0.711585
v -0.519603 0.073174 -0.711585
v -0.529596 0.106667 -0.730642
v -0.520646 0.106943 -0.730642
v -0.519482 1.020331 0.730528
v -0.526909 1.018626 0.730528
v -0.520526 1.054099 0.711470
v -0.527953 1.052395 0.711470
v -0.521224 1.076662 0.682949
v -0.528652 1.074959 0.682949
v -0.521224 1.076662 -0.683063
v -0.528652 1.074959 -0.683063
v -0.520526 1.054100 -0.711585
v -0.527953 1.052396 -0.711585
v -0.519483 1.020331 -0.730642
v -0.526910 1.018626 -0.730642
vt 0.558130 0.036045
vt 0.558130 0.020104
vt 0.940075 0.020104
vt 0.940075 0.036045
vt 0.861525 0.265518
vt 0.861525 0.287270
vt 0.581078 0.287270
vt 0.581078 0.265518
vt 0.903488 0.432670
vt 0.903488 0.454215
vt 0.539444 0.454215
vt 0.539444 0.432670
vt 0.939263 0.468287
vt 0.939263 0.489522
vt 0.575209 0.489522
vt 0.575209 0.468286
vt 0.557677 0.489522
vt 0.557677 0.468286
vt 0.541789 0.489522
vt 0.541789 0.468286
vt 0.526757 0.020104
vt 0.543363 0.020104
vt 0.543363 0.036045
vt 0.526757 0.036045
vt 0.947074 0.020104
vt 0.947074 0.036045
vt 0.955582 0.020104
vt 0.955582 0.036045
vt 0.965891 0.020104
vt 0.965891 0.036045
vt 0.977766 0.020104
vt 0.977766 0.036045
vt 0.905383 0.294763
vt 0.889913 0.294763
vt 0.889913 0.265518
vt 0.905383 0.265518
vt 0.878227 0.294763
vt 0.878227 0.265518
vt 0.868660 0.287270
vt 0.868660 0.265518
vt 0.573938 0.287270
vt 0.573938 0.265518
vt 0.564434 0.287270
vt 0.564434 0.258025
vt 0.552637 0.287270
vt 0.552637 0.258025
vt 0.537145 0.287270
vt 0.537145 0.258025
vt 0.551259 0.660602
vt 0.555940 0.652307
vt 0.562944 0.646765
vt 0.571210 0.644819
vt 0.890120 0.644868
vt 0.898381 0.646815
vt 0.905384 0.652360
vt 0.910063 0.660657
vt 0.911705 0.670443
vt 0.911675 0.875045
vt 0.910029 0.884831
vt 0.905349 0.893127
vt 0.898345 0.898669
vt 0.890080 0.900614
vt 0.571168 0.900566
vt 0.562907 0.898618
vt 0.555904 0.893074
vt 0.551225 0.884777
vt 0.549584 0.874990
vt 0.549612 0.670388
vt 0.564434 0.242795
vt 0.564434 0.065936
vt 0.564434 0.057448
vt 0.568661 0.050614
vt 0.574725 0.043755
vt 0.582041 0.043755
vt 0.862425 0.043755
vt 0.869717 0.043755
vt 0.878227 0.048820
vt 0.878227 0.056227
vt 0.878227 0.064900
vt 0.878227 0.246084
vt 0.878227 0.254825
vt 0.564434 0.251298
vn 0.0309 -0.9995 -0.0000
vn -0.2235 0.9747 0.0000
vn -0.0000 0.0000 -1.0000
vn -0.0000 -0.0000 1.0000
vn 0.0051 -0.1655 0.9862
vn 0.0152 -0.4911 0.8710
vn 0.0242 -0.7837 0.6206
vn 0.0300 -0.9729 0.2293
vn 0.0300 -0.9729 -0.2293
vn 0.0242 -0.7837 -0.6206
vn 0.0152 -0.4911 -0.8710
vn 0.0051 -0.1655 -0.9862
vn -0.0377 0.1644 0.9857
vn -0.1115 0.4858 0.8669
vn -0.1766 0.7698 0.6133
vn -0.2178 0.9496 0.2252
vn -0.2178 0.9496 -0.2252
vn -0.1766 0.7698 -0.6133
vn -0.1115 0.4858 -0.8669
vn -0.0377 0.1644 -0.9857
vn 1.0000 0.0025 -0.0000
vn -1.0000 -0.0011 0.0000
usemtl Material.001
s 1
f 41/83/23 42/84/23 43/85/23 44/86/23
f 45/87/24 46/88/24 47/89/24 48/90/24
f 49/91/25 50/92/25 51/93/25 52/94/25
f 53/95/26 54/96/26 55/97/26 56/98/26
f 55/97/27 57/99/27 58/100/27 56/98/27
f 57/99/28 59/101/28 60/102/28 58/100/28
f 59/103/29 61/104/29 62/105/29 60/106/29
f 61/104/30 42/84/30 41/83/30 62/105/30
f 43/85/31 63/107/31 64/108/31 44/86/31
f 63/107/32 65/109/32 66/110/32 64/108/32
f 65/109/33 67/111/33 68/112/33 66/110/33
f 67/111/34 50/113/34 49/114/34 68/112/34
f 53/115/35 69/116/35 70/117/35 54/118/35
f 69/116/36 71/119/36 72/120/36 70/117/36
f 71/119/37 73/121/37 74/122/37 72/120/37
f 73/121/38 46/88/38 45/87/38 74/122/38
f 47/89/39 75/123/39 76/124/39 48/90/39
f 75/123/40 77/125/40 78/126/40 76/124/40
f 77/125/41 79/127/41 80/128/41 78/126/41
f 79/127/42 52/129/42 51/130/42 80/128/42
f 79/131/43 77/132/43 75/133/43 47/134/43 46/135/43 73/136/43 71/137/43 69/138/43 53/139/43 56/140/43 58/141/43 60/142/43 62/143/43 41/144/43 44/145/43 64/146/43 66/147/43 68/148/43 49/149/43 52/150/43
f 51/151/44 50/152/44 67/153/44 65/154/44 63/155/44 43/156/44 42/157/44 61/158/44 59/159/44 57/160/44 55/161/44 54/162/44 70/163/44 72/120/44 74/122/44 45/87/44 48/90/44 76/124/44 78/126/44 80/164/44
