# Blender v2.79 (sub 0) OBJ File: 'phone.blend'
# www.blender.org
mtllib phone.mtl
o pCube1
v 1.207977 0.440379 0.298135
v 1.151940 0.440379 0.298135
v 1.151940 -0.440379 0.298135
v 1.207977 -0.440379 0.298135
v 1.151940 0.440379 -0.298135
v 1.207977 0.440379 -0.298135
v 1.207977 -0.440379 -0.298135
v 1.151940 -0.440379 -0.298135
v 1.207977 -0.500000 0.238514
v 1.151940 -0.500000 0.238514
v 1.151940 -0.500000 -0.238514
v 1.207977 -0.500000 -0.238514
v 1.207977 0.500000 -0.238514
v 1.151940 0.500000 -0.238514
v 1.151940 0.500000 0.238514
v 1.207977 0.500000 0.238514
v 1.151940 0.495462 0.261330
v 1.207977 0.495462 0.261330
v 1.151940 0.482537 0.280672
v 1.207977 0.482537 0.280672
v 1.151940 0.463195 0.293596
v 1.207977 0.463195 0.293596
v 1.151940 -0.463195 0.293596
v 1.207977 -0.463195 0.293596
v 1.151940 -0.482537 0.280672
v 1.207977 -0.482537 0.280672
v 1.151940 -0.495462 0.261330
v 1.207977 -0.495462 0.261330
v 1.207977 0.495462 -0.261330
v 1.151940 0.495462 -0.261330
v 1.207977 0.482537 -0.280672
v 1.151940 0.482537 -0.280672
v 1.207977 0.463195 -0.293596
v 1.151940 0.463195 -0.293596
v 1.207977 -0.463195 -0.293596
v 1.151940 -0.463195 -0.293596
v 1.207977 -0.482537 -0.280672
v 1.151940 -0.482537 -0.280672
v 1.207977 -0.495462 -0.261330
v 1.151940 -0.495462 -0.261330
vt 0.698617 0.601390
vt 0.744021 0.601399
vt 0.732428 0.930451
vt 0.711186 0.930099
vt 0.392513 0.529480
vt 0.364786 0.529097
vt 0.369522 0.077712
vt 0.397249 0.078094
vt 0.228960 0.614148
vt 0.261127 0.614717
vt 0.250176 0.962309
vt 0.218004 0.959877
vt 0.283127 0.579489
vt 0.315297 0.581995
vt 0.303102 0.927901
vt 0.270713 0.926904
vt 0.302331 0.944594
vt 0.270914 0.943605
vt 0.301728 0.959723
vt 0.270965 0.958737
vt 0.908081 0.581481
vt 0.908081 0.592414
vt 0.534380 0.592414
vt 0.531013 0.581481
vt 0.734014 0.939445
vt 0.709441 0.939069
vt 0.735799 0.950308
vt 0.707436 0.949901
vt 0.737404 0.963366
vt 0.705484 0.962920
vt 0.738583 0.977777
vt 0.703833 0.977286
vt 0.355171 0.586683
vt 0.355599 0.568599
vt 0.398625 0.569190
vt 0.399039 0.587143
vt 0.356491 0.550871
vt 0.397715 0.551997
vt 0.362687 0.540768
vt 0.393402 0.540740
vt 0.368634 0.066449
vt 0.399347 0.066422
vt 0.364321 0.055194
vt 0.405545 0.056319
vt 0.363411 0.038001
vt 0.406436 0.038592
vt 0.362997 0.020048
vt 0.406864 0.020508
vt 0.351444 0.048968
vt 0.346606 0.557448
vt 0.334949 0.559715
vt 0.092443 0.559473
vt 0.080806 0.557195
vt 0.071435 0.550632
vt 0.064359 0.540794
vt 0.061515 0.528983
vt 0.059704 0.076072
vt 0.062159 0.064314
vt 0.068978 0.054338
vt 0.079135 0.047667
vt 0.091027 0.045316
vt 0.339459 0.046486
vt 0.427086 0.047477
vt 0.669589 0.047717
vt 0.681226 0.049995
vt 0.690597 0.056558
vt 0.697673 0.066396
vt 0.700517 0.078207
vt 0.702331 0.531117
vt 0.699876 0.542876
vt 0.693058 0.552851
vt 0.682900 0.559522
vt 0.671008 0.561873
vt 0.422577 0.560703
vt 0.410592 0.558223
vt 0.415428 0.049743
vn -0.0000 0.0000 1.0000
vn 0.0000 0.0000 -1.0000
vn 0.0000 -1.0000 0.0000
vn -0.0000 1.0000 0.0000
vn -0.0000 0.9808 0.1951
vn -0.0000 0.8314 0.5556
vn -0.0000 0.5556 0.8315
vn -0.0000 0.1951 0.9808
vn -0.0000 -0.1951 0.9808
vn -0.0000 -0.5556 0.8315
vn -0.0000 -0.8314 0.5556
vn -0.0000 -0.9808 0.1951
vn -0.0000 0.9808 -0.1951
vn 0.0000 0.8314 -0.5556
vn 0.0000 0.5556 -0.8315
vn 0.0000 0.1951 -0.9808
vn 0.0000 -0.1951 -0.9808
vn 0.0000 -0.5556 -0.8315
vn 0.0000 -0.8314 -0.5556
vn 0.0000 -0.9808 -0.1951
vn 1.0000 0.0000 0.0000
vn -1.0000 0.0000 0.0000
usemtl lambert2SG
s 1
f 1/1/1 2/2/1 3/3/1 4/4/1
f 5/5/2 6/6/2 7/7/2 8/8/2
f 9/9/3 10/10/3 11/11/3 12/12/3
f 13/13/4 14/14/4 15/15/4 16/16/4
f 15/15/5 17/17/5 18/18/5 16/16/5
f 17/17/6 19/19/6 20/20/6 18/18/6
f 19/21/7 21/22/7 22/23/7 20/24/7
f 21/22/8 2/2/8 1/1/8 22/23/8
f 3/3/9 23/25/9 24/26/9 4/4/9
f 23/25/10 25/27/10 26/28/10 24/26/10
f 25/27/11 27/29/11 28/30/11 26/28/11
f 27/29/12 10/31/12 9/32/12 28/30/12
f 13/33/13 29/34/13 30/35/13 14/36/13
f 29/34/14 31/37/14 32/38/14 30/35/14
f 31/37/15 33/39/15 34/40/15 32/38/15
f 33/39/16 6/6/16 5/5/16 34/40/16
f 7/7/17 35/41/17 36/42/17 8/8/17
f 35/41/18 37/43/18 38/44/18 36/42/18
f 37/43/19 39/45/19 40/46/19 38/44/19
f 39/45/20 12/47/20 11/48/20 40/46/20
f 39/49/21 37/43/21 35/41/21 7/7/21 6/6/21 33/39/21 31/37/21 29/50/21 13/51/21 16/52/21 18/53/21 20/54/21 22/55/21 1/56/21 4/57/21 24/58/21 26/59/21 28/60/21 9/61/21 12/62/21
f 11/63/22 10/64/22 27/65/22 25/66/22 23/67/22 3/68/22 2/69/22 21/70/22 19/71/22 17/72/22 15/73/22 14/74/22 30/75/22 32/38/22 34/40/22 5/5/22 8/8/22 36/42/22 38/44/22 40/76/22
