# Blender v2.79 (sub 0) OBJ File: 'reachslice.blend'
# www.blender.org
mtllib reachslice.mtl
o pCylinder4
v 0.000000 -0.525057 1.526008
v 0.000000 -0.525057 2.719584
v -0.885243 -0.525057 2.579375
v -0.516407 -0.525057 1.444217
v -0.516407 0.525056 1.444217
v 0.000000 0.525055 1.526008
v 0.000000 0.525055 2.719584
v -0.885243 0.525056 2.579375
vt 0.456256 0.061445
vt 0.456256 0.297999
vt 0.287558 0.271280
vt 0.357846 0.045858
vt 0.838066 0.406732
vt 0.701002 0.406732
vt 0.701002 0.602252
vt 0.838066 0.602252
vt 0.542678 0.359978
vt 0.679741 0.359978
vt 0.679741 0.649006
vt 0.542678 0.649006
vt 0.357846 0.950560
vt 0.287558 0.743335
vt 0.456256 0.716616
vt 0.456256 0.934974
vt 0.211114 0.337051
vt 0.521925 0.337051
vt 0.521925 0.669321
vt 0.211114 0.669321
vt 0.211113 0.337051
vt 0.521924 0.337051
vt 0.521924 0.669321
vt 0.211113 0.669321
vn 0.0000 -1.0000 -0.0000
vn 0.1564 0.0000 -0.9877
vn -0.1564 0.0000 0.9877
vn 0.0000 1.0000 0.0000
vn 1.0000 0.0000 0.0000
vn -0.9511 0.0000 -0.3090
usemtl lambert2SG
s 1
f 1/1/1 2/2/1 3/3/1 4/4/1
f 1/5/2 4/6/2 5/7/2 6/8/2
f 3/9/3 2/10/3 7/11/3 8/12/3
f 5/13/4 8/14/4 7/15/4 6/16/4
f 2/17/5 1/18/5 6/19/5 7/20/5
f 4/21/6 3/22/6 8/23/6 5/24/6
o pCylinder5
v 0.000000 -0.525057 1.526008
v 0.000000 -0.525057 2.719584
v -0.885243 -0.525057 2.579375
v -0.516407 -0.525057 1.444217
v -0.516407 0.525056 1.444217
v 0.000000 0.525055 1.526008
v 0.000000 0.525055 2.719584
v -0.885243 0.525056 2.579375
vt 0.500000 0.341042
vt 0.500000 0.426165
vt 0.439295 0.416550
vt 0.464588 0.335433
vt 0.697286 0.465292
vt 0.647964 0.465292
vt 0.647964 0.535648
vt 0.697286 0.535648
vt 0.647964 0.448467
vt 0.697286 0.448467
vt 0.697286 0.552472
vt 0.647964 0.552472
vt 0.464588 0.660985
vt 0.439295 0.586416
vt 0.500000 0.576801
vt 0.500000 0.655376
vt 0.000000 0.000000
vt 0.935418 0.000001
vt 0.935418 1.000000
vt 0.000000 1.000000
vt 0.000000 0.000000
vt 0.935417 0.000000
vt 0.935417 1.000000
vt 0.000000 1.000000
vn 0.0000 -1.0000 -0.0000
vn 0.1564 0.0000 -0.9877
vn -0.1564 0.0000 0.9877
vn 0.0000 1.0000 0.0000
vn 1.0000 0.0000 0.0000
vn -0.9511 0.0000 -0.3090
usemtl lambert2SG
s 1
f 9/25/7 10/26/7 11/27/7 12/28/7
f 9/29/8 12/30/8 13/31/8 14/32/8
f 11/33/9 10/34/9 15/35/9 16/36/9
f 13/37/10 16/38/10 15/39/10 14/40/10
f 10/41/11 9/42/11 14/43/11 15/44/11
f 12/45/12 11/46/12 16/47/12 13/48/12
