# Blender v2.79 (sub 0) OBJ File: 'trunk_model.blend'
# www.blender.org
mtllib trunk_bottom.mtl
o base_trunk_base
v 1.000000 -0.925145 -0.000566
v 1.000000 -0.925145 1.209806
v -1.000000 -0.925145 1.209805
v -1.000000 -0.925145 -0.000566
v 1.000000 -0.007642 -0.000566
v 0.999999 -0.007642 1.209806
v -1.000000 -0.007642 1.209805
v -1.000000 -0.007642 -0.000566
v 0.945399 -0.007642 0.032478
v 0.945398 -0.007642 1.176762
v -0.945399 -0.007642 0.032478
v -0.945399 -0.007642 1.176762
v 0.945399 -0.844145 0.032478
v 0.945398 -0.844145 1.176762
v -0.945399 -0.844145 0.032478
v -0.945399 -0.844145 1.176762
vt 0.000000 0.339513
vt 0.263703 0.339513
vt 0.263703 0.679025
vt 0.000000 0.679025
vt 0.000000 0.339513
vt 0.000000 0.000000
vt 0.007199 0.009269
vt 0.007199 0.330244
vt 0.516577 0.679025
vt 0.263703 0.679025
vt 0.263703 0.339513
vt 0.516577 0.339513
vt 0.516577 0.000000
vt 0.769451 0.000000
vt 0.769451 0.339512
vt 0.516577 0.339513
vt 0.263703 0.339513
vt 0.263703 0.000000
vt 0.516577 0.000000
vt 0.516577 0.339513
vt 0.769451 0.339513
vt 0.769451 0.679025
vt 0.516577 0.679025
vt 0.769451 0.320975
vt 0.769451 0.000000
vt 1.000000 0.000000
vt 1.000000 0.320975
vt 0.263703 0.000000
vt 0.256504 0.009269
vt 0.263703 0.339513
vt 0.256504 0.330244
vt 0.249305 0.679025
vt 0.249305 1.000000
vt 0.000000 1.000000
vt 0.000000 0.679025
vt 0.494253 1.000000
vt 0.494253 0.679025
vt 0.724802 0.679025
vt 0.724802 1.000000
vt 0.724802 1.000000
vt 0.724802 0.679025
vt 0.955351 0.679025
vt 0.955351 1.000000
vt 0.494253 1.000000
vt 0.263703 1.000000
vt 0.263703 0.679025
vn 0.0000 -1.0000 0.0000
vn 0.0000 1.0000 0.0000
vn 1.0000 0.0000 0.0000
vn -0.0000 -0.0000 1.0000
vn -1.0000 -0.0000 -0.0000
vn 0.0000 0.0000 -1.0000
usemtl trunk_base_mat
s off
f 1/1/1 2/2/1 3/3/1 4/4/1
f 7/5/2 6/6/2 10/7/2 12/8/2
f 1/9/3 5/10/3 6/11/3 2/12/3
f 2/13/4 6/14/4 7/15/4 3/16/4
f 3/16/5 7/17/5 8/18/5 4/19/5
f 5/20/6 1/21/6 4/22/6 8/23/6
f 12/24/6 10/25/6 14/26/6 16/27/6
f 6/6/2 5/28/2 9/29/2 10/7/2
f 8/30/2 7/5/2 12/8/2 11/31/2
f 5/28/2 8/30/2 11/31/2 9/29/2
f 13/32/2 15/33/2 16/34/2 14/35/2
f 10/36/5 9/37/5 13/38/5 14/39/5
f 11/40/3 12/41/3 16/42/3 15/43/3
f 9/37/4 11/44/4 15/45/4 13/46/4
