# Blender v2.79 (sub 0) OBJ File: 'trunk_model.blend'
# www.blender.org
mtllib trunk_top.mtl
o top_trunk_top
v 1.000000 0.280438 1.209806
v 1.000000 0.280439 -0.000566
v -1.000000 0.280439 -0.000566
v -1.000000 0.280438 1.209806
v 1.000000 0.004935 1.209805
v 0.999999 0.004935 -0.000566
v -1.000000 0.004935 -0.000566
v -1.000000 0.004935 1.209805
v 0.945399 0.004935 1.176761
v 0.945398 0.004935 0.032478
v -0.945399 0.004935 1.176762
v -0.945399 0.004935 0.032478
v 0.945399 0.199439 1.176762
v 0.945398 0.199439 0.032478
v -0.945399 0.199439 1.176762
v -0.945399 0.199439 0.032479
vt 0.000000 0.000000
vt 0.391350 0.000000
vt 0.391350 0.500000
vt 0.000000 0.500000
vt 0.000000 1.000000
vt 0.000000 0.500000
vt 0.010684 0.513651
vt 0.010684 0.986350
vt 0.504037 0.972699
vt 0.391350 0.972699
vt 0.391350 0.472699
vt 0.504037 0.472700
vt 0.616723 0.472700
vt 0.616723 0.972699
vt 0.504037 0.972699
vt 0.729410 0.472699
vt 0.842097 0.472699
vt 0.842097 0.972699
vt 0.729410 0.972699
vt 0.616723 0.472699
vt 0.729410 0.472699
vt 0.616723 0.972699
vt 0.920444 0.472699
vt 0.920444 0.000000
vt 1.000000 0.000000
vt 1.000000 0.472699
vt 0.391350 0.500000
vt 0.380665 0.513650
vt 0.391350 1.000000
vt 0.380666 0.986350
vt 0.761331 0.000000
vt 0.761331 0.472699
vt 0.391350 0.472699
vt 0.391350 0.000000
vt 0.761331 0.472699
vt 0.761331 0.000000
vt 0.840887 0.000000
vt 0.840887 0.472699
vt 0.840888 0.472699
vt 0.840888 0.000000
vt 0.920444 0.000000
vt 0.920444 0.472699
vt 0.842097 0.945399
vt 0.842097 0.472699
vt 0.921653 0.472699
vt 0.921654 0.945399
vn 0.0000 1.0000 0.0000
vn -0.0000 -1.0000 -0.0000
vn 1.0000 -0.0000 -0.0000
vn -0.0000 0.0000 -1.0000
vn -1.0000 0.0000 0.0000
vn 0.0000 -0.0000 1.0000
usemtl trunk_top_mat
s off
f 1/1/1 2/2/1 3/3/1 4/4/1
f 7/5/2 6/6/2 10/7/2 12/8/2
f 1/9/3 5/10/3 6/11/3 2/12/3
f 2/12/4 6/13/4 7/14/4 3/15/4
f 3/16/5 7/17/5 8/18/5 4/19/5
f 5/20/6 1/21/6 4/19/6 8/22/6
f 12/23/6 10/24/6 14/25/6 16/26/6
f 6/6/2 5/27/2 9/28/2 10/7/2
f 8/29/2 7/5/2 12/8/2 11/30/2
f 5/27/2 8/29/2 11/30/2 9/28/2
f 13/31/2 15/32/2 16/33/2 14/34/2
f 10/35/5 9/36/5 13/37/5 14/38/5
f 11/39/3 12/40/3 16/41/3 15/42/3
f 9/43/4 11/44/4 15/45/4 13/46/4
